<?xml version="1.0" encoding="UTF-8"?>
<svg id="Layer_1" data-name="Layer 1" xmlns="http://www.w3.org/2000/svg" viewBox="0 0 971.631 361.677">
  <defs>
    <style>
      .cls-1 {
        fill: #fff;
      }
    </style>
  </defs>
  <path class="cls-1" d="M733.733,108.342c-53.372-18.106-114.609,4.249-131.41,61.419-13.383,45.537-1.747,102.616,43.016,126.954,29.8,16.202,64.68,17.976,96.113,5.155,25.086-10.232,43.333-31.155,50.029-56.757l-49.104-1.473c-7.12,16.753-21.929,24.7-38.499,25.635-29.635,3.154-54.21-17.785-55.821-47.965l147.107-.063c5.652-47.485-12.928-96.452-61.431-112.906ZM649.105,185.354c2.325-27.101,24.475-44.68,50.75-43.319,24.259,1.257,42.861,18.267,44.264,43.276l-95.015.043ZM394.953,107.086c-52.805-15.701-110.786,7.64-127.199,62.931-14.498,48.84.805,107.14,48.878,129.839,55.026,25.982,122.536,2.698,141.049-57.769,16.493-53.869-4.251-117.614-62.727-135.001ZM408.267,233.415c-6.813,20.487-24.536,32.946-43.813,33.413-20.748.503-39.065-11.383-46.556-31.573-7.345-19.799-7.018-41.687,1.22-61.227,7.869-18.664,25.914-29.323,45.158-28.733,18.958.581,36.139,11.96,43.201,31.165,6.596,17.939,7.123,37.908.789,56.954ZM190.332,183.64l.266,121.671,50.734-.213.707-101.801c.22-31.67,1.075-67.749-26.536-87.42-29.955-21.34-80.985-18.309-104.814,15.731l-1.879-24.298-47.478.014-.033,197.986,50.033-.051.675-118.256c.088-15.453,10.347-29.698,21.112-35.391,14.33-7.577,31.208-7.826,44.103,2.742,8.325,6.823,13.087,18.936,13.109,29.284ZM562.458,264.434c-7.996.038-16.105-8.023-16.126-16.821l-.239-99.302,41.283-.558-.871-40.442-39.173-.311-.458-55.689-49.542.039-.145,55.531-29.855.581.003,40.448,28.997.683.709,113.238c.142,22.571,16.507,39.169,37.647,42.91,17.916,3.17,34.582,2.785,53.644.365l-.284-40.794-25.59.123ZM866.332,217.311c-24.301,0-44,19.699-44,44s19.699,44,44,44,44-19.699,44-44-19.699-44-44-44Z"/>
</svg>